<?xml version="1.0" encoding="utf-8"?>
<!-- Generator: Adobe Illustrator 24.1.3, SVG Export Plug-In . SVG Version: 6.00 Build 0)  -->
<svg version="1.1" id="Livello_1" xmlns="http://www.w3.org/2000/svg" xmlns:xlink="http://www.w3.org/1999/xlink" x="0px" y="0px"
	 viewBox="0 0 396.85 793.7" style="enable-background:new 0 0 396.85 793.7;" xml:space="preserve">
<style type="text/css">
	.st0{fill:#5799D3;}
	.st1{fill:none;}
	.st2{fill:#E52823;}
</style>
<rect x="279.23" y="145.98" transform="matrix(0.7071 -0.7071 0.7071 0.7071 -40.2283 285.557)" class="st0" width="90.71" height="90.71"/>
<line class="st1" x1="-2.1" y1="871.27" x2="-2.11" y2="871.27"/>
<path class="st2" d="M284.34,455.03c-6-10-16-17-28-17c-17,0-30,13-30,30c0,33,18,38,58,76c40-38,58-43,58-76c0-17-13-30-30-30
	C300.34,438.03,290.34,445.03,284.34,455.03z"/>
<path d="M225.09,359.34l18.1,67.54l1.28,4.78c3.91-1.31,8.1-2.03,12.45-2.03c10.22,0,19.53,3.94,26.48,10.38v0.01l-24.07-89.84
	c22.47-8.62,42.64-21.87,59.35-38.58l-40.09-40.09c-9.75,9.76-21.29,17.75-34.06,23.44c-10.65,4.75-22.16,7.9-34.23,9.16
	c-3.91,0.4-7.87,0.61-11.88,0.61s-7.96-0.21-11.86-0.62c-12.08-1.25-23.59-4.4-34.24-9.15c-39.65-17.66-67.29-57.4-67.29-103.61
	c0-62.62,50.77-113.39,113.39-113.39c31.31,0,59.66,12.69,80.17,33.21l40.09-40.08c-30.78-30.78-73.3-49.82-120.26-49.82
	c-93.93,0-170.08,76.15-170.08,170.08c0,72.47,45.33,134.35,109.18,158.84L24.38,772.45H354.4h18.07l-63.93-238.58v-0.01v0.01
	c-7.18,6.25-15.24,13.41-24.2,21.92c-3.04-2.89-5.98-5.62-8.81-8.21l41.27,154H80.04l91.71-342.24c8.69,1.37,17.6,2.08,26.67,2.08
	C207.49,361.42,216.4,360.71,225.09,359.34l18.1,67.54"/>
</svg>
