<?xml version="1.0" encoding="utf-8"?>
<!-- Generator: Adobe Illustrator 24.1.3, SVG Export Plug-In . SVG Version: 6.00 Build 0)  -->
<svg version="1.1" id="Livello_1" xmlns="http://www.w3.org/2000/svg" xmlns:xlink="http://www.w3.org/1999/xlink" x="0px" y="0px"
	 viewBox="0 0 915.59 566.93" style="enable-background:new 0 0 915.59 566.93;" xml:space="preserve">
<style type="text/css">
	.st0{fill:#FFFFFF;}
	.st1{fill:#5698D2;}
</style>
<rect x="0" class="st0" width="915.59" height="561.26"/>
<g>
	<path d="M80.99,507.32c-0.12-0.88-2-5.5-2.12-6.75c-2.88,4.12-8.75,8.12-16,8.12c-11.5,0-20.75-4.88-20.75-16.38
		c0-11.62,6.38-19.75,30.62-19.75h5.5v-4.38c0-7.62-2.62-13-11.38-13c-7.88,0-14.12,2.38-19.5,5l-2.88-7
		c6.62-2.5,13.88-4.38,22.5-4.38c11.75,0,19.5,5.88,19.5,18.38v22.62c0,4.5,1,10.5,1.75,17.5H80.99z M78.37,478.7h-3.88
		c-18,0-23.75,4.12-23.75,13.38c0,6.38,4.75,10.25,13,10.25c6.62,0,12-3,14.62-7.62V478.7z"/>
	<path d="M158.63,458.45c-2-1.75-5.62-3.25-9-3.25c-6.88,0-10.75,11.38-12.5,15v37.12H129v-44.38c0-5.62-0.88-9.88-1.12-12.75H135
		l1.75,11.62c2.12-4.12,7.62-13,14.5-13c4.75,0,8.25,1.5,10.25,2.75L158.63,458.45z"/>
	<path d="M218.21,508.7c-17.5,0-25.25-12-25.25-29.5c0-18.5,7.62-30.38,25.62-30.38c5.12,0,13.5,2.12,17.62,3.75l-2.88,6.88
		c-4.25-2.12-10.62-4.25-14.88-4.25c-12.62,0-17,9.38-17,24c0,13.38,4.38,23.12,16.88,23.12c3.88,0,10.38-1.75,15.25-4.25l2.88,6.88
		C232.08,507.07,222.58,508.7,218.21,508.7z"/>
	<path d="M309.76,507.32v-35c0-9.75-1.75-17.12-12.5-17.12c-7.88,0-13.25,7.38-14.88,12.12v40h-8.12V425.2h8.12v33.5
		c2.38-4.12,8.12-9.88,16.12-9.88c15.38,0,19.38,10.25,19.38,21.88v36.62H309.76z"/>
	<path d="M359.4,436.2v-9.75h9v9.75H359.4z M359.9,507.32V450.2h8.12v57.12H359.9z"/>
	<path d="M433.95,514.7c-13.88-2.75-20.88-10.38-20.88-21.25v-36.88h-8.62v-6.38h8.62v-14.62h8.12v14.62h13.12v6.38H421.2v37
		c0,8.75,5.12,12.25,15.38,13.75L433.95,514.7z"/>
	<path d="M474.56,481.57c0.38,12.12,4.75,20.88,16.62,20.88c6.25,0,11.88-1.75,17.75-4.88l2.5,6.75
		c-6.62,3.12-14.12,4.38-21.25,4.38c-17.25,0-24.38-13.5-24.38-29.38c0-13.25,5.25-30.5,23.88-30.5c18.88,0,24.25,13.38,24.25,32.75
		H474.56z M489.81,455.2c-8.88,0-14.75,6.88-15.38,20h31.38C505.56,461.57,500.56,455.2,489.81,455.2z"/>
	<path d="M576.34,514.7c-13.88-2.75-20.88-10.38-20.88-21.25v-36.88h-8.62v-6.38h8.62v-14.62h8.12v14.62h13.12v6.38h-13.12v37
		c0,8.75,5.12,12.25,15.38,13.75L576.34,514.7z"/>
	<path d="M638.71,514.7c-13.88-2.75-20.88-10.38-20.88-21.25v-36.88h-8.62v-6.38h8.62v-14.62h8.12v14.62h13.12v6.38h-13.12v37
		c0,8.75,5.12,12.25,15.38,13.75L638.71,514.7z"/>
	<path d="M711.54,507.32l-1.88-8.5c-2.25,2.62-6.75,9.88-15.75,9.88c-14.62,0-19.25-9.38-19.25-22.5v-36h8.12v35.5
		c0,8.75,1.5,16.62,12.25,16.62c7.5,0,12.25-6.88,14.25-12.12v-40h8.12v45c0,4.75,0.88,7.62,1.25,12.12H711.54z"/>
	<path d="M789.49,458.45c-2-1.75-5.62-3.25-9-3.25c-6.88,0-10.75,11.38-12.5,15v37.12h-8.12v-44.38c0-5.62-0.88-9.88-1.12-12.75
		h7.12l1.75,11.62c2.12-4.12,7.62-13,14.5-13c4.75,0,8.25,1.5,10.25,2.75L789.49,458.45z"/>
	<path d="M865.03,507.32c-0.12-0.88-2-5.5-2.12-6.75c-2.88,4.12-8.75,8.12-16,8.12c-11.5,0-20.75-4.88-20.75-16.38
		c0-11.62,6.38-19.75,30.62-19.75h5.5v-4.38c0-7.62-2.62-13-11.38-13c-7.88,0-14.12,2.38-19.5,5l-2.88-7
		c6.62-2.5,13.88-4.38,22.5-4.38c11.75,0,19.5,5.88,19.5,18.38v22.62c0,4.5,1,10.5,1.75,17.5H865.03z M862.41,478.7h-3.88
		c-18,0-23.75,4.12-23.75,13.38c0,6.38,4.75,10.25,13,10.25c6.62,0,12-3,14.62-7.62V478.7z"/>
</g>
<rect x="791.21" y="145.98" transform="matrix(0.7071 -0.7071 0.7071 0.7071 109.7269 647.5813)" class="st1" width="90.71" height="90.71"/>
<path d="M830.34,71.08l-40.09,40.08L830.34,71.08c-30.78-30.78-73.3-49.82-120.26-49.82C616.15,21.26,540,97.41,540,191.34
	s76.15,170.08,170.08,170.08c46.96,0,89.48-19.04,120.26-49.82l-40.09-40.09c-20.51,20.52-48.86,33.21-80.17,33.21
	c-62.62,0-113.39-50.76-113.39-113.38S647.46,77.95,710.08,77.95c31.31,0,59.66,12.69,80.17,33.21"/>
<polyline points="377.01,35.43 377.01,347.24 377,347.25 341.57,347.25 341.57,347.24 341.57,35.43 341.57,35.44 377,35.44 "/>
<polyline points="483.31,35.43 483.31,347.24 483.3,347.25 447.87,347.25 447.87,347.24 447.87,35.43 447.87,35.44 483.3,35.44 "/>
<polyline points="35.43,35.44 50.11,35.44 70.86,56.19 180.96,166.29 235.27,220.6 235.27,35.44 270.7,35.44 270.7,347.25 
	261.7,347.25 235.27,320.82 130.85,216.4 70.86,156.41 70.86,347.25 70.86,361.42 35.43,361.42 35.43,361.42 35.43,35.43 "/>
</svg>
